<svg width="24" height="24" viewBox="0 0 24 24" fill="none" xmlns="http://www.w3.org/2000/svg">
<g clip-path="url(#clip0_4308_397)">
<path d="M12 24C18.6274 24 24 18.6274 24 12C24 5.37258 18.6274 0 12 0C5.37258 0 0 5.37258 0 12C0 18.6274 5.37258 24 12 24Z" fill="#F7931A"/>
<path d="M17.6429 10.5304C17.879 8.95436 16.6782 8.10695 15.0375 7.54151L15.5699 5.40606L14.2706 5.08274L13.7517 7.16179C13.4104 7.07607 13.06 6.99637 12.7103 6.91666L13.2329 4.82408L11.9336 4.5L11.4012 6.63469C11.118 6.57103 10.8413 6.50587 10.5711 6.4392L10.5726 6.43243L8.78006 5.98504L8.43418 7.37308C8.43418 7.37308 9.39889 7.59414 9.37859 7.60768C9.90493 7.73926 9.99967 8.0874 9.98388 8.3641L9.37783 10.7966C9.41443 10.8051 9.45954 10.8194 9.51318 10.8394L9.37558 10.8056L8.52591 14.2133C8.46125 14.3727 8.29808 14.6125 7.92964 14.5216C7.94318 14.5404 6.98523 14.2862 6.98523 14.2862L6.34009 15.7735L8.0319 16.1953C8.3462 16.2743 8.65449 16.357 8.95751 16.4344L8.41989 18.5939L9.71845 18.9173L10.2508 16.7818C10.6052 16.8771 10.9506 16.9665 11.287 17.0503L10.7561 19.1767L12.0554 19.5L12.593 17.345C14.8097 17.7646 16.4759 17.5954 17.1775 15.5908C17.7429 13.9772 17.1497 13.0455 15.9834 12.4387C16.8331 12.2432 17.4722 11.6846 17.6429 10.5304ZM14.6728 14.6945C14.2721 16.3089 11.5539 15.4359 10.6726 15.2171L11.387 12.356C12.2682 12.5763 15.0932 13.0117 14.6728 14.6945ZM15.0751 10.5071C14.7089 11.9756 12.4472 11.2289 11.714 11.0462L12.3607 8.45208C13.0938 8.63479 15.4571 8.97541 15.0751 10.5071Z" fill="white"/>
</g>
<defs>
<clipPath id="clip0_4308_397">
<rect width="24" height="24" fill="white"/>
</clipPath>
</defs>
</svg>
