<svg width="24" height="24" viewBox="0 0 24 24" fill="none" xmlns="http://www.w3.org/2000/svg">
<circle cx="12" cy="12" r="12" fill="#E7E7E7"/>
<g clip-path="url(#clip0_3552_7411)">
<path d="M12.0029 4.5L11.9023 4.84173V14.7578L12.0029 14.8582L16.6058 12.1374L12.0029 4.5Z" fill="#343434"/>
<path d="M12.0029 4.5L7.3999 12.1374L12.0029 14.8582V10.0453V4.5Z" fill="#8C8C8C"/>
<path d="M12.0027 15.7297L11.946 15.7988V19.3311L12.0027 19.4966L16.6084 13.0103L12.0027 15.7297Z" fill="#3C3C3B"/>
<path d="M12.0029 19.4966V15.7297L7.3999 13.0103L12.0029 19.4966Z" fill="#8C8C8C"/>
<path d="M12.0029 14.8582L16.6058 12.1374L12.0029 10.0453V14.8582Z" fill="#141414"/>
<path d="M7.3999 12.1374L12.0028 14.8582V10.0453L7.3999 12.1374Z" fill="#393939"/>
</g>
<defs>
<clipPath id="clip0_3552_7411">
<rect width="9.20863" height="15" fill="white" transform="translate(7.3999 4.5)"/>
</clipPath>
</defs>
</svg>
