<svg width="24" height="24" viewBox="0 0 24 24" fill="none" xmlns="http://www.w3.org/2000/svg">
<mask id="mask0_4318_4777" style="mask-type:alpha" maskUnits="userSpaceOnUse" x="0" y="0" width="24" height="24">
<circle cx="12" cy="12" r="12" fill="#E7E7E7"/>
</mask>
<g mask="url(#mask0_4318_4777)">
<g clip-path="url(#clip0_4318_4777)">
<path d="M0 0H24V24H0V0Z" fill="#003399"/>
<path d="M12.0001 3.70996L11.6445 4.89515L12.2371 5.01366L12.0001 3.70996Z" fill="#FFCC00"/>
<path d="M12.0002 3.70996L12.3557 4.89515L11.7631 5.01366L12.0002 3.70996Z" fill="#FFCC00"/>
<path d="M13.127 4.52895L11.8899 4.55704L11.9603 5.15725L13.127 4.52895Z" fill="#FFCC00"/>
<path d="M13.1269 4.52891L12.1096 5.23331L11.8138 4.70634L13.1269 4.52891Z" fill="#FFCC00"/>
<path d="M12.6965 5.85401L12.2875 4.68618L11.7384 4.93862L12.6965 5.85401Z" fill="#FFCC00"/>
<path d="M12.6966 5.854L11.7123 5.10415L12.1221 4.65995L12.6966 5.854Z" fill="#FFCC00"/>
<path d="M10.873 4.52895L12.1101 4.55704L12.0397 5.15725L10.873 4.52895Z" fill="#FFCC00"/>
<path d="M10.8731 4.52891L11.8904 5.23331L12.1862 4.70634L10.8731 4.52891Z" fill="#FFCC00"/>
<path d="M11.3035 5.85401L11.7125 4.68618L12.2616 4.93862L11.3035 5.85401Z" fill="#FFCC00"/>
<path d="M11.3034 5.854L12.2877 5.10415L11.8779 4.65995L11.3034 5.854Z" fill="#FFCC00"/>
<path d="M12.0001 17.9321L11.6445 19.1173L12.2371 19.2358L12.0001 17.9321Z" fill="#FFCC00"/>
<path d="M12.0002 17.9321L12.3557 19.1173L11.7631 19.2358L12.0002 17.9321Z" fill="#FFCC00"/>
<path d="M13.127 18.7511L11.8899 18.7792L11.9603 19.3794L13.127 18.7511Z" fill="#FFCC00"/>
<path d="M13.1269 18.7511L12.1096 19.4555L11.8138 18.9285L13.1269 18.7511Z" fill="#FFCC00"/>
<path d="M12.6965 20.0762L12.2875 18.9084L11.7384 19.1608L12.6965 20.0762Z" fill="#FFCC00"/>
<path d="M12.6966 20.0762L11.7123 19.3263L12.1221 18.8821L12.6966 20.0762Z" fill="#FFCC00"/>
<path d="M10.873 18.7511L12.1101 18.7792L12.0397 19.3794L10.873 18.7511Z" fill="#FFCC00"/>
<path d="M10.8731 18.7511L11.8904 19.4555L12.1862 18.9285L10.8731 18.7511Z" fill="#FFCC00"/>
<path d="M11.3035 20.0762L11.7125 18.9084L12.2616 19.1608L11.3035 20.0762Z" fill="#FFCC00"/>
<path d="M11.3034 20.0762L12.2877 19.3263L11.8779 18.8821L11.3034 20.0762Z" fill="#FFCC00"/>
<path d="M4.889 10.821L4.53345 12.0062L5.12604 12.1247L4.889 10.821Z" fill="#FFCC00"/>
<path d="M4.88907 10.821L5.24463 12.0062L4.65204 12.1247L4.88907 10.821Z" fill="#FFCC00"/>
<path d="M6.01588 11.64L4.77883 11.6681L4.84923 12.2683L6.01588 11.64Z" fill="#FFCC00"/>
<path d="M6.01586 11.64L4.99855 12.3444L4.70272 11.8174L6.01586 11.64Z" fill="#FFCC00"/>
<path d="M5.5854 12.9651L5.17641 11.7973L4.62733 12.0497L5.5854 12.9651Z" fill="#FFCC00"/>
<path d="M5.5855 12.9651L4.60122 12.2152L5.01097 11.771L5.5855 12.9651Z" fill="#FFCC00"/>
<path d="M3.76195 11.64L4.999 11.6681L4.9286 12.2683L3.76195 11.64Z" fill="#FFCC00"/>
<path d="M3.76197 11.64L4.77928 12.3444L5.07512 11.8174L3.76197 11.64Z" fill="#FFCC00"/>
<path d="M4.19244 12.9651L4.60142 11.7973L5.1505 12.0497L4.19244 12.9651Z" fill="#FFCC00"/>
<path d="M4.19233 12.9651L5.17661 12.2152L4.76686 11.771L4.19233 12.9651Z" fill="#FFCC00"/>
<path d="M7.83515 6.86035L8.81944 6.1105L8.40968 5.6663L7.83515 6.86035Z" fill="#FFCC00"/>
<path d="M7.83526 6.86036L8.24424 5.69253L8.79332 5.94497L7.83526 6.86036Z" fill="#FFCC00"/>
<path d="M7.40455 5.53538L8.42186 6.23978L8.71769 5.71281L7.40455 5.53538Z" fill="#FFCC00"/>
<path d="M7.40453 5.53542L8.64158 5.56351L8.57118 6.16372L7.40453 5.53542Z" fill="#FFCC00"/>
<path d="M8.53158 4.71643L8.17603 5.90162L8.76862 6.02013L8.53158 4.71643Z" fill="#FFCC00"/>
<path d="M8.53165 4.71643L8.88721 5.90162L8.29461 6.02013L8.53165 4.71643Z" fill="#FFCC00"/>
<path d="M9.22832 6.86047L8.24404 6.11062L8.65379 5.66642L9.22832 6.86047Z" fill="#FFCC00"/>
<path d="M9.22822 6.86048L8.81923 5.69265L8.27015 5.94509L9.22822 6.86048Z" fill="#FFCC00"/>
<path d="M9.65893 5.53538L8.64162 6.23978L8.34578 5.71281L9.65893 5.53538Z" fill="#FFCC00"/>
<path d="M9.65894 5.53542L8.42189 5.56351L8.4923 6.16372L9.65894 5.53542Z" fill="#FFCC00"/>
<path d="M6.59199 9.49683L6.183 8.32901L5.63392 8.58144L6.59199 9.49683Z" fill="#FFCC00"/>
<path d="M6.59209 9.49682L5.60781 8.74698L6.01756 8.30277L6.59209 9.49682Z" fill="#FFCC00"/>
<path d="M5.19868 9.49682L6.18296 8.74698L5.77321 8.30277L5.19868 9.49682Z" fill="#FFCC00"/>
<path d="M5.19878 9.49683L5.60777 8.32901L6.15685 8.58144L5.19878 9.49683Z" fill="#FFCC00"/>
<path d="M4.76808 8.17173L5.78538 8.87613L6.08122 8.34917L4.76808 8.17173Z" fill="#FFCC00"/>
<path d="M4.76806 8.17177L6.00511 8.19986L5.9347 8.80007L4.76806 8.17177Z" fill="#FFCC00"/>
<path d="M7.02245 8.17173L6.00515 8.87613L5.70931 8.34917L7.02245 8.17173Z" fill="#FFCC00"/>
<path d="M7.02247 8.17177L5.78542 8.19986L5.85582 8.80007L7.02247 8.17177Z" fill="#FFCC00"/>
<path d="M5.89542 7.35278L6.25098 8.53797L5.65838 8.65649L5.89542 7.35278Z" fill="#FFCC00"/>
<path d="M5.89535 7.35278L5.53979 8.53797L6.13239 8.65649L5.89535 7.35278Z" fill="#FFCC00"/>
<path d="M7.02394 15.2998L5.78688 15.3279L5.85729 15.9281L7.02394 15.2998Z" fill="#FFCC00"/>
<path d="M7.02392 15.2998L6.00661 16.0042L5.71077 15.4772L7.02392 15.2998Z" fill="#FFCC00"/>
<path d="M6.59345 16.6249L6.18447 15.4571L5.63539 15.7095L6.59345 16.6249Z" fill="#FFCC00"/>
<path d="M6.59356 16.6249L5.60927 15.875L6.01903 15.4308L6.59356 16.6249Z" fill="#FFCC00"/>
<path d="M5.20014 16.6249L6.18443 15.875L5.77467 15.4308L5.20014 16.6249Z" fill="#FFCC00"/>
<path d="M5.20025 16.6249L5.60923 15.4571L6.15831 15.7095L5.20025 16.6249Z" fill="#FFCC00"/>
<path d="M5.89664 14.4808L6.2522 15.666L5.6596 15.7845L5.89664 14.4808Z" fill="#FFCC00"/>
<path d="M5.89657 14.4808L5.54102 15.666L6.13361 15.7845L5.89657 14.4808Z" fill="#FFCC00"/>
<path d="M4.76952 15.2998L6.00657 15.3279L5.93617 15.9281L4.76952 15.2998Z" fill="#FFCC00"/>
<path d="M4.76954 15.2998L5.78685 16.0042L6.08269 15.4772L4.76954 15.2998Z" fill="#FFCC00"/>
<path d="M9.5962 17.6853L8.35915 17.7134L8.42955 18.3136L9.5962 17.6853Z" fill="#FFCC00"/>
<path d="M9.59618 17.6853L8.57888 18.3897L8.28304 17.8627L9.59618 17.6853Z" fill="#FFCC00"/>
<path d="M9.16572 19.0104L8.75673 17.8426L8.20765 18.095L9.16572 19.0104Z" fill="#FFCC00"/>
<path d="M9.16582 19.0104L8.18154 18.2605L8.59129 17.8163L9.16582 19.0104Z" fill="#FFCC00"/>
<path d="M7.77241 19.0104L8.75669 18.2605L8.34694 17.8163L7.77241 19.0104Z" fill="#FFCC00"/>
<path d="M7.77251 19.0104L8.1815 17.8426L8.73058 18.095L7.77251 19.0104Z" fill="#FFCC00"/>
<path d="M8.46891 16.8663L8.82446 18.0515L8.23187 18.17L8.46891 16.8663Z" fill="#FFCC00"/>
<path d="M8.46884 16.8663L8.11328 18.0515L8.70587 18.17L8.46884 16.8663Z" fill="#FFCC00"/>
<path d="M7.34179 17.6853L8.57884 17.7134L8.50843 18.3136L7.34179 17.6853Z" fill="#FFCC00"/>
<path d="M7.34181 17.6853L8.35911 18.3897L8.65495 17.8627L7.34181 17.6853Z" fill="#FFCC00"/>
<path d="M19.111 10.821L19.4666 12.0062L18.874 12.1247L19.111 10.821Z" fill="#FFCC00"/>
<path d="M19.1109 10.821L18.7554 12.0062L19.348 12.1247L19.1109 10.821Z" fill="#FFCC00"/>
<path d="M17.9841 11.64L19.2212 11.6681L19.1508 12.2683L17.9841 11.64Z" fill="#FFCC00"/>
<path d="M17.9841 11.64L19.0014 12.3444L19.2973 11.8174L17.9841 11.64Z" fill="#FFCC00"/>
<path d="M18.4146 12.9651L18.8236 11.7973L19.3727 12.0497L18.4146 12.9651Z" fill="#FFCC00"/>
<path d="M18.4145 12.9651L19.3988 12.2152L18.989 11.771L18.4145 12.9651Z" fill="#FFCC00"/>
<path d="M20.238 11.64L19.001 11.6681L19.0714 12.2683L20.238 11.64Z" fill="#FFCC00"/>
<path d="M20.238 11.64L19.2207 12.3444L18.9249 11.8174L20.238 11.64Z" fill="#FFCC00"/>
<path d="M19.8076 12.9651L19.3986 11.7973L18.8495 12.0497L19.8076 12.9651Z" fill="#FFCC00"/>
<path d="M19.8077 12.9651L18.8234 12.2152L19.2331 11.771L19.8077 12.9651Z" fill="#FFCC00"/>
<path d="M16.1648 6.86035L15.1806 6.1105L15.5903 5.6663L16.1648 6.86035Z" fill="#FFCC00"/>
<path d="M16.1647 6.86036L15.7558 5.69253L15.2067 5.94497L16.1647 6.86036Z" fill="#FFCC00"/>
<path d="M16.5954 5.53538L15.5781 6.23978L15.2823 5.71281L16.5954 5.53538Z" fill="#FFCC00"/>
<path d="M16.5955 5.53542L15.3584 5.56351L15.4288 6.16372L16.5955 5.53542Z" fill="#FFCC00"/>
<path d="M15.4684 4.71643L15.824 5.90162L15.2314 6.02013L15.4684 4.71643Z" fill="#FFCC00"/>
<path d="M15.4683 4.71643L15.1128 5.90162L15.7054 6.02013L15.4683 4.71643Z" fill="#FFCC00"/>
<path d="M14.7717 6.86047L15.756 6.11062L15.3462 5.66642L14.7717 6.86047Z" fill="#FFCC00"/>
<path d="M14.7718 6.86048L15.1808 5.69265L15.7298 5.94509L14.7718 6.86048Z" fill="#FFCC00"/>
<path d="M14.3411 5.53538L15.3584 6.23978L15.6542 5.71281L14.3411 5.53538Z" fill="#FFCC00"/>
<path d="M14.3411 5.53542L15.5781 5.56351L15.5077 6.16372L14.3411 5.53542Z" fill="#FFCC00"/>
<path d="M17.408 9.49683L17.817 8.32901L18.3661 8.58144L17.408 9.49683Z" fill="#FFCC00"/>
<path d="M17.4079 9.49682L18.3922 8.74698L17.9824 8.30277L17.4079 9.49682Z" fill="#FFCC00"/>
<path d="M18.8013 9.49682L17.817 8.74698L18.2268 8.30277L18.8013 9.49682Z" fill="#FFCC00"/>
<path d="M18.8012 9.49683L18.3922 8.32901L17.8432 8.58144L18.8012 9.49683Z" fill="#FFCC00"/>
<path d="M19.2319 8.17173L18.2146 8.87613L17.9188 8.34917L19.2319 8.17173Z" fill="#FFCC00"/>
<path d="M19.2319 8.17177L17.9949 8.19986L18.0653 8.80007L19.2319 8.17177Z" fill="#FFCC00"/>
<path d="M16.9775 8.17173L17.9949 8.87613L18.2907 8.34917L16.9775 8.17173Z" fill="#FFCC00"/>
<path d="M16.9775 8.17177L18.2146 8.19986L18.1442 8.80007L16.9775 8.17177Z" fill="#FFCC00"/>
<path d="M18.1046 7.35278L17.749 8.53797L18.3416 8.65649L18.1046 7.35278Z" fill="#FFCC00"/>
<path d="M18.1046 7.35278L18.4602 8.53797L17.8676 8.65649L18.1046 7.35278Z" fill="#FFCC00"/>
<path d="M16.9761 15.2998L18.2131 15.3279L18.1427 15.9281L16.9761 15.2998Z" fill="#FFCC00"/>
<path d="M16.9761 15.2998L17.9934 16.0042L18.2892 15.4772L16.9761 15.2998Z" fill="#FFCC00"/>
<path d="M17.4065 16.6249L17.8155 15.4571L18.3646 15.7095L17.4065 16.6249Z" fill="#FFCC00"/>
<path d="M17.4064 16.6249L18.3907 15.875L17.981 15.4308L17.4064 16.6249Z" fill="#FFCC00"/>
<path d="M18.7999 16.6249L17.8156 15.875L18.2253 15.4308L18.7999 16.6249Z" fill="#FFCC00"/>
<path d="M18.7998 16.6249L18.3908 15.4571L17.8417 15.7095L18.7998 16.6249Z" fill="#FFCC00"/>
<path d="M18.1034 14.4808L17.7478 15.666L18.3404 15.7845L18.1034 14.4808Z" fill="#FFCC00"/>
<path d="M18.1034 14.4808L18.459 15.666L17.8664 15.7845L18.1034 14.4808Z" fill="#FFCC00"/>
<path d="M19.2305 15.2998L17.9934 15.3279L18.0638 15.9281L19.2305 15.2998Z" fill="#FFCC00"/>
<path d="M19.2305 15.2998L18.2132 16.0042L17.9173 15.4772L19.2305 15.2998Z" fill="#FFCC00"/>
<path d="M14.4038 17.6853L15.6408 17.7134L15.5704 18.3136L14.4038 17.6853Z" fill="#FFCC00"/>
<path d="M14.4038 17.6853L15.4211 18.3897L15.717 17.8627L14.4038 17.6853Z" fill="#FFCC00"/>
<path d="M14.8343 19.0104L15.2433 17.8426L15.7923 18.095L14.8343 19.0104Z" fill="#FFCC00"/>
<path d="M14.8342 19.0104L15.8185 18.2605L15.4087 17.8163L14.8342 19.0104Z" fill="#FFCC00"/>
<path d="M16.2276 19.0104L15.2433 18.2605L15.6531 17.8163L16.2276 19.0104Z" fill="#FFCC00"/>
<path d="M16.2275 19.0104L15.8185 17.8426L15.2694 18.095L16.2275 19.0104Z" fill="#FFCC00"/>
<path d="M15.5311 16.8663L15.1755 18.0515L15.7681 18.17L15.5311 16.8663Z" fill="#FFCC00"/>
<path d="M15.5312 16.8663L15.8867 18.0515L15.2941 18.17L15.5312 16.8663Z" fill="#FFCC00"/>
<path d="M16.6582 17.6853L15.4212 17.7134L15.4916 18.3136L16.6582 17.6853Z" fill="#FFCC00"/>
<path d="M16.6582 17.6853L15.6409 18.3897L15.345 17.8627L16.6582 17.6853Z" fill="#FFCC00"/>
</g>
<circle opacity="0.25" cx="12" cy="12" r="11.75" stroke="#222222" stroke-width="0.5"/>
</g>
<defs>
<clipPath id="clip0_4318_4777">
<rect width="24" height="24" fill="white"/>
</clipPath>
</defs>
</svg>
