<svg width="24" height="24" viewBox="0 0 24 24" fill="none" xmlns="http://www.w3.org/2000/svg">
<mask id="mask0_4318_3609" style="mask-type:alpha" maskUnits="userSpaceOnUse" x="0" y="0" width="24" height="24">
<circle cx="12" cy="12" r="12" fill="#E7E7E7"/>
</mask>
<g mask="url(#mask0_4318_3609)">
<g clip-path="url(#clip0_4318_3609)">
<mask id="mask1_4318_3609" style="mask-type:luminance" maskUnits="userSpaceOnUse" x="0" y="0" width="24" height="25">
<path d="M0.000488281 0H23.9984V24.0013H0.000488281V0Z" fill="white"/>
</mask>
<g mask="url(#mask1_4318_3609)">
<path fill-rule="evenodd" clip-rule="evenodd" d="M0 0H24V24H0V0Z" fill="white"/>
<path fill-rule="evenodd" clip-rule="evenodd" d="M0 0H24V12H0V0Z" fill="#DF0000"/>
<path fill-rule="evenodd" clip-rule="evenodd" d="M8.3667 2.01165C7.41932 2.21463 6.57066 2.73744 5.96324 3.49227C5.35582 4.2471 5.02666 5.18796 5.03103 6.15682C5.0354 7.12568 5.37304 8.06354 5.98724 8.81285C6.60144 9.56217 7.45478 10.0773 8.40395 10.2717C7.76487 10.4588 7.09107 10.4947 6.43571 10.3768C5.78035 10.2589 5.16136 9.99026 4.62757 9.59217C4.09378 9.19408 3.65979 8.67741 3.35985 8.0829C3.05991 7.48839 2.90222 6.83231 2.89921 6.16643C2.89621 5.50055 3.04798 4.84309 3.34255 4.2459C3.63711 3.64871 4.06642 3.12813 4.5966 2.72525C5.12677 2.32236 5.74332 2.04818 6.39759 1.92434C7.05186 1.8005 7.72595 1.83039 8.3667 2.01165Z" fill="white"/>
<path fill-rule="evenodd" clip-rule="evenodd" d="M6.90351 5.49997L6.26343 5.0326L7.0593 5.02583L7.30314 4.2706L7.55714 5.02583H8.34962L7.71292 5.49997L7.95676 6.25519L7.30991 5.79122L6.66644 6.25858L6.90351 5.49997ZM7.78404 8.10432L7.14058 7.63696L7.93644 7.63018L8.18367 6.87495L8.43428 7.6268H9.23015L8.58668 8.10093L8.83391 8.85616L8.19044 8.39557L7.54698 8.86293L7.78404 8.10432ZM10.7067 8.084L10.0633 7.61663L10.8558 7.60986L11.103 6.85463L11.3536 7.60986H12.1528L11.5128 8.084L11.76 8.83922L11.1131 8.37525L10.4697 8.84261L10.7067 8.084ZM11.5771 5.50335L10.9336 5.03599L11.7295 5.02922L11.9734 4.27399L12.2274 5.02583H13.0198L12.3831 5.49997L12.627 6.25519L11.9801 5.79461L11.3367 6.26197L11.5771 5.50335ZM9.26402 3.79308L8.62055 3.32572L9.41642 3.31895L9.66365 2.56372L9.91426 3.31895H10.7101L10.0667 3.79308L10.3139 4.54492L9.67042 4.08434L9.02695 4.5517L9.26402 3.79308Z" fill="white"/>
</g>
</g>
<circle opacity="0.25" cx="12" cy="12" r="11.75" stroke="#222222" stroke-width="0.5"/>
</g>
<defs>
<clipPath id="clip0_4318_3609">
<rect width="24" height="24" fill="white"/>
</clipPath>
</defs>
</svg>
