<svg width="24" height="24" viewBox="0 0 24 24" fill="none" xmlns="http://www.w3.org/2000/svg">
<mask id="mask0_4318_3594" style="mask-type:alpha" maskUnits="userSpaceOnUse" x="0" y="0" width="24" height="24">
<circle cx="12" cy="12" r="12" fill="#E7E7E7"/>
</mask>
<g mask="url(#mask0_4318_3594)">
<g clip-path="url(#clip0_4318_3594)">
<path fill-rule="evenodd" clip-rule="evenodd" d="M-1 0H23V24H-1V0Z" fill="#00247D"/>
<path d="M17.5808 7.26233V7.90679L18.8697 7.26233H17.5808Z" fill="white"/>
<path d="M17.8386 8.03568L17.5808 7.52011L18.8697 7.26233L17.8386 8.03568Z" fill="white"/>
<path d="M17.5808 7.26233V7.90679L16.2919 7.26233H17.5808Z" fill="white"/>
<path d="M17.323 8.03568L17.5808 7.52011L16.2919 7.26233L17.323 8.03568Z" fill="white"/>
<path d="M17.9487 7.52954L17.3358 7.72869L18.347 8.75538L17.9487 7.52954Z" fill="white"/>
<path d="M17.2929 8.01369L17.7036 7.6092L18.347 8.75538L17.2929 8.01369Z" fill="white"/>
<path d="M17.2131 7.52954L17.8261 7.72869L17.6114 6.3037L17.2131 7.52954Z" fill="white"/>
<path d="M18.0283 7.52335L17.4583 7.6092L17.6114 6.30371L18.0283 7.52335Z" fill="white"/>
<path d="M17.2131 7.52954L17.8261 7.72869L16.8148 8.75538L17.2131 7.52954Z" fill="white"/>
<path d="M17.869 8.01369L17.4583 7.6092L16.8148 8.75538L17.869 8.01369Z" fill="white"/>
<path d="M17.5811 7.39343V7.81929L18.4328 7.39343H17.5811Z" fill="#CC142B"/>
<path d="M17.7514 7.90446L17.5811 7.56377L18.4328 7.39343L17.7514 7.90446Z" fill="#CC142B"/>
<path d="M17.5811 7.39343V7.81929L16.7293 7.39343H17.5811Z" fill="#CC142B"/>
<path d="M17.4107 7.90446L17.5811 7.56377L16.7293 7.39343L17.4107 7.90446Z" fill="#CC142B"/>
<path d="M17.824 7.57007L17.419 7.70166L18.0872 8.38009L17.824 7.57007Z" fill="#CC142B"/>
<path d="M17.3906 7.88999L17.662 7.62271L18.0872 8.38009L17.3906 7.88999Z" fill="#CC142B"/>
<path d="M17.3379 7.57007L17.7429 7.70166L17.6011 6.76004L17.3379 7.57007Z" fill="#CC142B"/>
<path d="M17.8765 7.56598L17.4999 7.62271L17.6011 6.76004L17.8765 7.56598Z" fill="#CC142B"/>
<path d="M17.3379 7.57007L17.7429 7.70166L17.0747 8.38009L17.3379 7.57007Z" fill="#CC142B"/>
<path d="M17.7713 7.88999L17.4999 7.62271L17.0747 8.38009L17.7713 7.88999Z" fill="#CC142B"/>
<path d="M20.9575 10.2382L20.9575 10.8116L22.1045 10.2382L20.9575 10.2382Z" fill="white"/>
<path d="M21.1869 10.9263L20.9575 10.4676L22.1045 10.2382L21.1869 10.9263Z" fill="white"/>
<path d="M20.9575 10.2382L20.9575 10.8116L19.8106 10.2382L20.9575 10.2382Z" fill="white"/>
<path d="M20.7281 10.9263L20.9575 10.4676L19.8106 10.2382L20.7281 10.9263Z" fill="white"/>
<path d="M21.2847 10.476L20.7393 10.6532L21.6391 11.5668L21.2847 10.476Z" fill="white"/>
<path d="M20.7011 10.9068L21.0665 10.5468L21.6391 11.5668L20.7011 10.9068Z" fill="white"/>
<path d="M20.6304 10.476L21.1758 10.6532L20.9848 9.38512L20.6304 10.476Z" fill="white"/>
<path d="M21.3558 10.4704L20.8485 10.5468L20.9848 9.38512L21.3558 10.4704Z" fill="white"/>
<path d="M20.6304 10.476L21.1758 10.6532L20.2759 11.5668L20.6304 10.476Z" fill="white"/>
<path d="M21.214 10.9068L20.8485 10.5468L20.2759 11.5668L21.214 10.9068Z" fill="white"/>
<path d="M20.9575 10.3693L20.9575 10.7241L21.6673 10.3693L20.9575 10.3693Z" fill="#CC142B"/>
<path d="M21.0995 10.7951L20.9575 10.5112L21.6673 10.3693L21.0995 10.7951Z" fill="#CC142B"/>
<path d="M20.9575 10.3693L20.9575 10.7241L20.2478 10.3693L20.9575 10.3693Z" fill="#CC142B"/>
<path d="M20.8156 10.7951L20.9575 10.5112L20.2478 10.3693L20.8156 10.7951Z" fill="#CC142B"/>
<path d="M21.1602 10.5165L20.8226 10.6261L21.3795 11.1915L21.1602 10.5165Z" fill="#CC142B"/>
<path d="M20.799 10.7831L21.0252 10.5603L21.3795 11.1915L20.799 10.7831Z" fill="#CC142B"/>
<path d="M20.7551 10.5165L21.0926 10.6261L20.9745 9.84146L20.7551 10.5165Z" fill="#CC142B"/>
<path d="M21.204 10.5131L20.8901 10.5603L20.9745 9.84146L21.204 10.5131Z" fill="#CC142B"/>
<path d="M20.7551 10.5165L21.0926 10.6261L20.5358 11.1915L20.7551 10.5165Z" fill="#CC142B"/>
<path d="M21.1163 10.7831L20.8901 10.5603L20.5358 11.1915L21.1163 10.7831Z" fill="#CC142B"/>
<path d="M13.6467 11.2244L13.6467 11.8688L14.9356 11.2244L13.6467 11.2244Z" fill="white"/>
<path d="M13.9045 11.9977L13.6467 11.4821L14.9356 11.2244L13.9045 11.9977Z" fill="white"/>
<path d="M13.6467 11.2244L13.6467 11.8688L12.3578 11.2244L13.6467 11.2244Z" fill="white"/>
<path d="M13.3889 11.9977L13.6467 11.4821L12.3578 11.2244L13.3889 11.9977Z" fill="white"/>
<path d="M14.0146 11.4916L13.4017 11.6907L14.4129 12.7174L14.0146 11.4916Z" fill="white"/>
<path d="M13.3588 11.9757L13.7695 11.5712L14.4129 12.7174L13.3588 11.9757Z" fill="white"/>
<path d="M13.2791 11.4916L13.892 11.6907L13.6774 10.2657L13.2791 11.4916Z" fill="white"/>
<path d="M14.0942 11.4854L13.5242 11.5712L13.6774 10.2657L14.0942 11.4854Z" fill="white"/>
<path d="M13.2791 11.4916L13.892 11.6907L12.8808 12.7174L13.2791 11.4916Z" fill="white"/>
<path d="M13.9349 11.9757L13.5242 11.5712L12.8808 12.7174L13.9349 11.9757Z" fill="white"/>
<path d="M13.6467 11.3556L13.6467 11.7814L14.4984 11.3556L13.6467 11.3556Z" fill="#CC142B"/>
<path d="M13.8171 11.8666L13.6467 11.5259L14.4984 11.3556L13.8171 11.8666Z" fill="#CC142B"/>
<path d="M13.6467 11.3556L13.6467 11.7814L12.795 11.3556L13.6467 11.3556Z" fill="#CC142B"/>
<path d="M13.4764 11.8666L13.6467 11.5259L12.795 11.3556L13.4764 11.8666Z" fill="#CC142B"/>
<path d="M13.8896 11.5322L13.4846 11.6638L14.1528 12.3423L13.8896 11.5322Z" fill="#CC142B"/>
<path d="M13.4563 11.8521L13.7276 11.5849L14.1528 12.3423L13.4563 11.8521Z" fill="#CC142B"/>
<path d="M13.4036 11.5322L13.8086 11.6638L13.6668 10.7222L13.4036 11.5322Z" fill="#CC142B"/>
<path d="M13.9422 11.5281L13.5656 11.5849L13.6668 10.7222L13.9422 11.5281Z" fill="#CC142B"/>
<path d="M13.4036 11.5322L13.8086 11.6638L13.1404 12.3423L13.4036 11.5322Z" fill="#CC142B"/>
<path d="M13.8369 11.8521L13.5656 11.5849L13.1404 12.3423L13.8369 11.8521Z" fill="#CC142B"/>
<path d="M17.5811 17.4403V18.1557L19.0119 17.4403H17.5811Z" fill="white"/>
<path d="M17.8672 18.2988L17.5811 17.7265L19.0119 17.4403L17.8672 18.2988Z" fill="white"/>
<path d="M17.5811 17.4403V18.1557L16.1502 17.4403H17.5811Z" fill="white"/>
<path d="M17.2949 18.2988L17.5811 17.7265L16.1502 17.4403L17.2949 18.2988Z" fill="white"/>
<path d="M17.9893 17.7369L17.3088 17.958L18.4314 19.0978L17.9893 17.7369Z" fill="white"/>
<path d="M17.2612 18.2744L17.7171 17.8254L18.4314 19.0978L17.2612 18.2744Z" fill="white"/>
<path d="M17.1729 17.7369L17.8533 17.958L17.615 16.3761L17.1729 17.7369Z" fill="white"/>
<path d="M18.0778 17.7301L17.445 17.8254L17.615 16.3761L18.0778 17.7301Z" fill="white"/>
<path d="M17.1729 17.7369L17.8533 17.958L16.7307 19.0978L17.1729 17.7369Z" fill="white"/>
<path d="M17.9009 18.2744L17.445 17.8254L16.7307 19.0978L17.9009 18.2744Z" fill="white"/>
<path d="M17.5811 17.5714V18.0682L18.5747 17.5714H17.5811Z" fill="#CC142B"/>
<path d="M17.7798 18.1676L17.5811 17.7701L18.5747 17.5714L17.7798 18.1676Z" fill="#CC142B"/>
<path d="M17.5811 17.5714V18.0682L16.5874 17.5714H17.5811Z" fill="#CC142B"/>
<path d="M17.3823 18.1676L17.5811 17.7701L16.5874 17.5714L17.3823 18.1676Z" fill="#CC142B"/>
<path d="M17.8645 17.7775L17.392 17.931L18.1716 18.7225L17.8645 17.7775Z" fill="#CC142B"/>
<path d="M17.3589 18.1507L17.6755 17.8389L18.1716 18.7225L17.3589 18.1507Z" fill="#CC142B"/>
<path d="M17.2976 17.7775L17.7701 17.931L17.6047 16.8324L17.2976 17.7775Z" fill="#CC142B"/>
<path d="M17.926 17.7727L17.4866 17.8389L17.6047 16.8324L17.926 17.7727Z" fill="#CC142B"/>
<path d="M17.2976 17.7775L17.7701 17.931L16.9905 18.7225L17.2976 17.7775Z" fill="#CC142B"/>
<path d="M17.8032 18.1507L17.4866 17.8389L16.9905 18.7225L17.8032 18.1507Z" fill="#CC142B"/>
<path d="M-1 0H11V12H-1V0Z" fill="#012169"/>
<path d="M11 0V1.5L6.54688 6L11 10.3828V12H9.42969L4.95312 7.59375L0.59375 12H-1V10.4062L3.35938 6.02344L-1 1.73438V0H0.453125L4.95312 4.40625L9.3125 0H11Z" fill="white"/>
<path d="M3.3125 7.59375L3.57031 8.39062L-0.015625 12H-1V11.9297L3.3125 7.59375ZM6.21875 7.3125L7.48438 7.5L11 10.9453V12L6.21875 7.3125ZM11 0L6.5 4.59375L6.40625 3.5625L9.92188 0H11ZM-1 0.0234375L3.52344 4.45312L2.14062 4.26562L-1 1.14844V0.0234375Z" fill="#C8102E"/>
<path d="M3.125 0V12H6.875V0H3.125ZM-1 4.125V7.875H11V4.125H-1Z" fill="white"/>
<path d="M-1 4.875V7.125H11V4.875H-1ZM3.875 0V12H6.125V0H3.875Z" fill="#C8102E"/>
</g>
<g clip-path="url(#clip1_4318_3594)">
<path fill-rule="evenodd" clip-rule="evenodd" d="M-1 0H23V24H-1V0Z" fill="#00247D"/>
<path d="M17.5808 7.26233V7.90679L18.8697 7.26233H17.5808Z" fill="white"/>
<path d="M17.8386 8.03568L17.5808 7.52011L18.8697 7.26233L17.8386 8.03568Z" fill="white"/>
<path d="M17.5808 7.26233V7.90679L16.2919 7.26233H17.5808Z" fill="white"/>
<path d="M17.323 8.03568L17.5808 7.52011L16.2919 7.26233L17.323 8.03568Z" fill="white"/>
<path d="M17.9487 7.52954L17.3358 7.72869L18.347 8.75538L17.9487 7.52954Z" fill="white"/>
<path d="M17.2929 8.01369L17.7036 7.6092L18.347 8.75538L17.2929 8.01369Z" fill="white"/>
<path d="M17.2131 7.52954L17.8261 7.72869L17.6114 6.3037L17.2131 7.52954Z" fill="white"/>
<path d="M18.0283 7.52335L17.4583 7.6092L17.6114 6.30371L18.0283 7.52335Z" fill="white"/>
<path d="M17.2131 7.52954L17.8261 7.72869L16.8148 8.75538L17.2131 7.52954Z" fill="white"/>
<path d="M17.869 8.01369L17.4583 7.6092L16.8148 8.75538L17.869 8.01369Z" fill="white"/>
<path d="M17.5811 7.39343V7.81929L18.4328 7.39343H17.5811Z" fill="#CC142B"/>
<path d="M17.7514 7.90446L17.5811 7.56377L18.4328 7.39343L17.7514 7.90446Z" fill="#CC142B"/>
<path d="M17.5811 7.39343V7.81929L16.7293 7.39343H17.5811Z" fill="#CC142B"/>
<path d="M17.4107 7.90446L17.5811 7.56377L16.7293 7.39343L17.4107 7.90446Z" fill="#CC142B"/>
<path d="M17.824 7.57007L17.419 7.70166L18.0872 8.38009L17.824 7.57007Z" fill="#CC142B"/>
<path d="M17.3906 7.88999L17.662 7.62271L18.0872 8.38009L17.3906 7.88999Z" fill="#CC142B"/>
<path d="M17.3379 7.57007L17.7429 7.70166L17.6011 6.76004L17.3379 7.57007Z" fill="#CC142B"/>
<path d="M17.8765 7.56598L17.4999 7.62271L17.6011 6.76004L17.8765 7.56598Z" fill="#CC142B"/>
<path d="M17.3379 7.57007L17.7429 7.70166L17.0747 8.38009L17.3379 7.57007Z" fill="#CC142B"/>
<path d="M17.7713 7.88999L17.4999 7.62271L17.0747 8.38009L17.7713 7.88999Z" fill="#CC142B"/>
<path d="M20.9575 10.2382L20.9575 10.8116L22.1045 10.2382L20.9575 10.2382Z" fill="white"/>
<path d="M21.1869 10.9263L20.9575 10.4676L22.1045 10.2382L21.1869 10.9263Z" fill="white"/>
<path d="M20.9575 10.2382L20.9575 10.8116L19.8106 10.2382L20.9575 10.2382Z" fill="white"/>
<path d="M20.7281 10.9263L20.9575 10.4676L19.8106 10.2382L20.7281 10.9263Z" fill="white"/>
<path d="M21.2847 10.476L20.7393 10.6532L21.6391 11.5668L21.2847 10.476Z" fill="white"/>
<path d="M20.7011 10.9068L21.0665 10.5468L21.6391 11.5668L20.7011 10.9068Z" fill="white"/>
<path d="M20.6304 10.476L21.1758 10.6532L20.9848 9.38512L20.6304 10.476Z" fill="white"/>
<path d="M21.3558 10.4704L20.8485 10.5468L20.9848 9.38512L21.3558 10.4704Z" fill="white"/>
<path d="M20.6304 10.476L21.1758 10.6532L20.2759 11.5668L20.6304 10.476Z" fill="white"/>
<path d="M21.214 10.9068L20.8485 10.5468L20.2759 11.5668L21.214 10.9068Z" fill="white"/>
<path d="M20.9575 10.3693L20.9575 10.7241L21.6673 10.3693L20.9575 10.3693Z" fill="#CC142B"/>
<path d="M21.0995 10.7951L20.9575 10.5112L21.6673 10.3693L21.0995 10.7951Z" fill="#CC142B"/>
<path d="M20.9575 10.3693L20.9575 10.7241L20.2478 10.3693L20.9575 10.3693Z" fill="#CC142B"/>
<path d="M20.8156 10.7951L20.9575 10.5112L20.2478 10.3693L20.8156 10.7951Z" fill="#CC142B"/>
<path d="M21.1602 10.5165L20.8226 10.6261L21.3795 11.1915L21.1602 10.5165Z" fill="#CC142B"/>
<path d="M20.799 10.7831L21.0252 10.5603L21.3795 11.1915L20.799 10.7831Z" fill="#CC142B"/>
<path d="M20.7551 10.5165L21.0926 10.6261L20.9745 9.84146L20.7551 10.5165Z" fill="#CC142B"/>
<path d="M21.204 10.5131L20.8901 10.5603L20.9745 9.84146L21.204 10.5131Z" fill="#CC142B"/>
<path d="M20.7551 10.5165L21.0926 10.6261L20.5358 11.1915L20.7551 10.5165Z" fill="#CC142B"/>
<path d="M21.1163 10.7831L20.8901 10.5603L20.5358 11.1915L21.1163 10.7831Z" fill="#CC142B"/>
<path d="M13.6467 11.2244L13.6467 11.8688L14.9356 11.2244L13.6467 11.2244Z" fill="white"/>
<path d="M13.9045 11.9977L13.6467 11.4821L14.9356 11.2244L13.9045 11.9977Z" fill="white"/>
<path d="M13.6467 11.2244L13.6467 11.8688L12.3578 11.2244L13.6467 11.2244Z" fill="white"/>
<path d="M13.3889 11.9977L13.6467 11.4821L12.3578 11.2244L13.3889 11.9977Z" fill="white"/>
<path d="M14.0146 11.4916L13.4017 11.6907L14.4129 12.7174L14.0146 11.4916Z" fill="white"/>
<path d="M13.3588 11.9757L13.7695 11.5712L14.4129 12.7174L13.3588 11.9757Z" fill="white"/>
<path d="M13.2791 11.4916L13.892 11.6907L13.6774 10.2657L13.2791 11.4916Z" fill="white"/>
<path d="M14.0942 11.4854L13.5242 11.5712L13.6774 10.2657L14.0942 11.4854Z" fill="white"/>
<path d="M13.2791 11.4916L13.892 11.6907L12.8808 12.7174L13.2791 11.4916Z" fill="white"/>
<path d="M13.9349 11.9757L13.5242 11.5712L12.8808 12.7174L13.9349 11.9757Z" fill="white"/>
<path d="M13.6467 11.3556L13.6467 11.7814L14.4984 11.3556L13.6467 11.3556Z" fill="#CC142B"/>
<path d="M13.8171 11.8666L13.6467 11.5259L14.4984 11.3556L13.8171 11.8666Z" fill="#CC142B"/>
<path d="M13.6467 11.3556L13.6467 11.7814L12.795 11.3556L13.6467 11.3556Z" fill="#CC142B"/>
<path d="M13.4764 11.8666L13.6467 11.5259L12.795 11.3556L13.4764 11.8666Z" fill="#CC142B"/>
<path d="M13.8896 11.5322L13.4846 11.6638L14.1528 12.3423L13.8896 11.5322Z" fill="#CC142B"/>
<path d="M13.4563 11.8521L13.7276 11.5849L14.1528 12.3423L13.4563 11.8521Z" fill="#CC142B"/>
<path d="M13.4036 11.5322L13.8086 11.6638L13.6668 10.7222L13.4036 11.5322Z" fill="#CC142B"/>
<path d="M13.9422 11.5281L13.5656 11.5849L13.6668 10.7222L13.9422 11.5281Z" fill="#CC142B"/>
<path d="M13.4036 11.5322L13.8086 11.6638L13.1404 12.3423L13.4036 11.5322Z" fill="#CC142B"/>
<path d="M13.8369 11.8521L13.5656 11.5849L13.1404 12.3423L13.8369 11.8521Z" fill="#CC142B"/>
<path d="M17.5811 17.4403V18.1557L19.0119 17.4403H17.5811Z" fill="white"/>
<path d="M17.8672 18.2988L17.5811 17.7265L19.0119 17.4403L17.8672 18.2988Z" fill="white"/>
<path d="M17.5811 17.4403V18.1557L16.1502 17.4403H17.5811Z" fill="white"/>
<path d="M17.2949 18.2988L17.5811 17.7265L16.1502 17.4403L17.2949 18.2988Z" fill="white"/>
<path d="M17.9893 17.7369L17.3088 17.958L18.4314 19.0978L17.9893 17.7369Z" fill="white"/>
<path d="M17.2612 18.2744L17.7171 17.8254L18.4314 19.0978L17.2612 18.2744Z" fill="white"/>
<path d="M17.1729 17.7369L17.8533 17.958L17.615 16.3761L17.1729 17.7369Z" fill="white"/>
<path d="M18.0778 17.7301L17.445 17.8254L17.615 16.3761L18.0778 17.7301Z" fill="white"/>
<path d="M17.1729 17.7369L17.8533 17.958L16.7307 19.0978L17.1729 17.7369Z" fill="white"/>
<path d="M17.9009 18.2744L17.445 17.8254L16.7307 19.0978L17.9009 18.2744Z" fill="white"/>
<path d="M17.5811 17.5714V18.0682L18.5747 17.5714H17.5811Z" fill="#CC142B"/>
<path d="M17.7798 18.1676L17.5811 17.7701L18.5747 17.5714L17.7798 18.1676Z" fill="#CC142B"/>
<path d="M17.5811 17.5714V18.0682L16.5874 17.5714H17.5811Z" fill="#CC142B"/>
<path d="M17.3823 18.1676L17.5811 17.7701L16.5874 17.5714L17.3823 18.1676Z" fill="#CC142B"/>
<path d="M17.8645 17.7775L17.392 17.931L18.1716 18.7225L17.8645 17.7775Z" fill="#CC142B"/>
<path d="M17.3589 18.1507L17.6755 17.8389L18.1716 18.7225L17.3589 18.1507Z" fill="#CC142B"/>
<path d="M17.2976 17.7775L17.7701 17.931L17.6047 16.8324L17.2976 17.7775Z" fill="#CC142B"/>
<path d="M17.926 17.7727L17.4866 17.8389L17.6047 16.8324L17.926 17.7727Z" fill="#CC142B"/>
<path d="M17.2976 17.7775L17.7701 17.931L16.9905 18.7225L17.2976 17.7775Z" fill="#CC142B"/>
<path d="M17.8032 18.1507L17.4866 17.8389L16.9905 18.7225L17.8032 18.1507Z" fill="#CC142B"/>
<path d="M-1 0H11V12H-1V0Z" fill="#012169"/>
<path d="M11 0V1.5L6.54688 6L11 10.3828V12H9.42969L4.95312 7.59375L0.59375 12H-1V10.4062L3.35938 6.02344L-1 1.73438V0H0.453125L4.95312 4.40625L9.3125 0H11Z" fill="white"/>
<path d="M3.3125 7.59375L3.57031 8.39062L-0.015625 12H-1V11.9297L3.3125 7.59375ZM6.21875 7.3125L7.48438 7.5L11 10.9453V12L6.21875 7.3125ZM11 0L6.5 4.59375L6.40625 3.5625L9.92188 0H11ZM-1 0.0234375L3.52344 4.45312L2.14062 4.26562L-1 1.14844V0.0234375Z" fill="#C8102E"/>
<path d="M3.125 0V12H6.875V0H3.125ZM-1 4.125V7.875H11V4.125H-1Z" fill="white"/>
<path d="M-1 4.875V7.125H11V4.875H-1ZM3.875 0V12H6.125V0H3.875Z" fill="#C8102E"/>
</g>
<g filter="url(#filter0_d_4318_3594)">
<path d="M33.7204 19.9128H-5V22.046H33.7204V19.9128Z" fill="white"/>
<path d="M-5 12.563V14.1429H33.7217V12.563H11.775H-5Z" fill="white"/>
<path d="M33.7204 16.1185H-5V17.9357H33.7204V16.1185Z" fill="white"/>
<path d="M33.7208 1.73596H11.7742V3.07982H33.7208V1.73596Z" fill="white"/>
<path d="M33.7208 8.7699H11.7742V10.5871H33.7208V8.7699Z" fill="white"/>
<path d="M33.7208 5.05542H11.7742V6.79393H33.7208V5.05542Z" fill="white"/>
<path d="M-5 22.5903V24.0218H33.7217V22.5903V22.046H-5V22.5903Z" fill="#D1290E"/>
<path d="M33.7204 17.937H-5V19.9128H33.7204V17.937Z" fill="#D1290E"/>
<path d="M33.7204 14.1429H-5V16.1188H33.7204V14.1429Z" fill="#D1290E"/>
<path d="M33.7208 10.587H11.7742V12.5628H33.7208V10.587Z" fill="#D1290E"/>
<path d="M33.7208 6.79431H11.7742V8.77012H33.7208V6.79431Z" fill="#D1290E"/>
<path d="M33.7208 3.07983H11.7742V5.05564H33.7208V3.07983Z" fill="#D1290E"/>
<path d="M33.7208 0H11.7742V1.73593H33.7208V0Z" fill="#D1290E"/>
<path d="M11.775 10.5871V0H-5V12.5629H11.7737V10.5871H11.775ZM10.0442 0.918261L10.2183 0.566175L10.3925 0.918261L10.7807 0.975007L10.4995 1.24842L10.5653 1.63533L10.2183 1.45348L9.87142 1.63533L9.9372 1.24842L9.65604 0.975007L10.0442 0.918261ZM7.2843 0.918261L7.45841 0.566175L7.63252 0.918261L8.02072 0.975007L7.73956 1.24842L7.80534 1.63533L7.45841 1.45348L7.11148 1.63533L7.17726 1.24842L6.89611 0.975007L7.2843 0.918261ZM4.52437 0.918261L4.69847 0.566175L4.87258 0.918261L5.26078 0.975007L4.97963 1.24842L5.0454 1.63533L4.69847 1.45348L4.35155 1.63533L4.41732 1.24842L4.13617 0.975007L4.52437 0.918261ZM1.76572 0.918261L1.93983 0.566175L2.11393 0.918261L2.50213 0.975007L2.22098 1.24842L2.28675 1.63533L1.93983 1.45348L1.5929 1.63533L1.65867 1.24842L1.37752 0.975007L1.76572 0.918261ZM-0.994221 0.918261L-0.820112 0.566175L-0.646004 0.918261L-0.257807 0.975007L-0.53896 1.24842L-0.473186 1.63533L-0.820112 1.45348L-1.16704 1.63533L-1.10127 1.24842L-1.38242 0.975007L-0.994221 0.918261ZM-3.75416 0.918261L-3.58005 0.566175L-3.40594 0.918261L-3.01775 0.975007L-3.2989 1.24842L-3.23312 1.63533L-3.58005 1.45348L-3.92698 1.63533L-3.8612 1.24842L-4.14236 0.975007L-3.75416 0.918261ZM-1.73063 2.90052L-2.07756 2.71867L-2.42449 2.90052L-2.35871 2.51361L-2.63987 2.2402L-2.25167 2.18345L-2.07756 1.83136L-1.90345 2.18345L-1.51526 2.2402L-1.79641 2.51361L-1.73063 2.90052ZM1.02801 2.90052L0.681087 2.71867L0.33416 2.90052L0.399935 2.51361L0.118782 2.2402L0.506979 2.18345L0.681087 1.83136L0.855196 2.18345L1.24339 2.2402L0.96224 2.51361L1.02801 2.90052ZM3.78795 2.90052L3.44103 2.71867L3.0941 2.90052L3.15987 2.51361L2.87872 2.2402L3.26692 2.18345L3.44103 1.83136L3.61513 2.18345L4.00333 2.2402L3.72218 2.51361L3.78795 2.90052ZM6.54789 2.90052L6.20096 2.71867L5.85404 2.90052L5.91981 2.51361L5.63866 2.2402L6.02685 2.18345L6.20096 1.83136L6.37507 2.18345L6.76327 2.2402L6.48212 2.51361L6.54789 2.90052ZM9.30654 2.90052L8.95961 2.71867L8.61268 2.90052L8.67846 2.51361L8.39731 2.2402L8.7855 2.18345L8.95961 1.83136L9.13372 2.18345L9.52192 2.2402L9.24076 2.51361L9.30654 2.90052ZM-3.23312 6.69608L-3.58005 6.51424L-3.92698 6.69608L-3.8612 6.30917L-4.14236 6.03576L-3.75416 5.97901L-3.58005 5.62693L-3.40594 5.97901L-3.01775 6.03576L-3.2989 6.30917L-3.23312 6.69608ZM-0.473186 4.16571L-0.820112 3.98386L-1.16704 4.16571L-1.10127 3.7788L-1.38242 3.50538L-0.994221 3.44864L-0.820112 3.09655L-0.646004 3.44864L-0.257807 3.50538L-0.53896 3.7788L-0.473186 4.16571ZM0.120072 4.77057L0.508268 4.71382L0.682377 4.36174L0.856485 4.71382L1.24468 4.77057L0.96353 5.04399L0.966109 5.05559L1.03059 5.43089L0.683666 5.24905L0.33674 5.43089L0.401225 5.05559L0.403804 5.04399L0.122651 4.77057H0.120072ZM2.28546 4.16571L1.93854 3.98386L1.59161 4.16571L1.65738 3.7788L1.37623 3.50538L1.76443 3.44864L1.93854 3.09655L2.11264 3.44864L2.50084 3.50538L2.21969 3.7788L2.28546 4.16571ZM2.88001 4.77057L3.26821 4.71382L3.44231 4.36174L3.61642 4.71382L4.00462 4.77057L3.72347 5.04399L3.72605 5.05559L3.79053 5.43089L3.4436 5.24905L3.09668 5.43089L3.16116 5.05559L3.16374 5.04399L2.88259 4.77057H2.88001ZM5.0454 4.16571L4.69847 3.98386L4.35155 4.16571L4.41732 3.7788L4.13617 3.50538L4.52437 3.44864L4.69847 3.09655L4.87258 3.44864L5.26078 3.50538L4.97963 3.7788L5.0454 4.16571ZM5.63866 4.77057L6.02685 4.71382L6.20096 4.36174L6.37507 4.71382L6.76327 4.77057L6.48212 5.04399L6.4847 5.05559L6.54918 5.43089L6.20225 5.24905L5.85533 5.43089L5.91981 5.05559L5.92239 5.04399L5.64124 4.77057H5.63866ZM7.80534 4.16571L7.45841 3.98386L7.11148 4.16571L7.17726 3.7788L6.89611 3.50538L7.2843 3.44864L7.45841 3.09655L7.63252 3.44864L8.02072 3.50538L7.73956 3.7788L7.80534 4.16571ZM7.80534 6.69608L7.45841 6.51424L7.11148 6.69608L7.17726 6.30917L6.89611 6.03576L7.2843 5.97901L7.45841 5.62693L7.63252 5.97901L8.02072 6.03576L7.73956 6.30917L7.80534 6.69608ZM5.0454 6.69608L4.69847 6.51424L4.35155 6.69608L4.41732 6.30917L4.13617 6.03576L4.52437 5.97901L4.69847 5.62693L4.87258 5.97901L5.26078 6.03576L4.97963 6.30917L5.0454 6.69608ZM2.28546 6.69608L1.93854 6.51424L1.59161 6.69608L1.65738 6.30917L1.37623 6.03576L1.76443 5.97901L1.93854 5.62693L2.11264 5.97901L2.50084 6.03576L2.21969 6.30917L2.28546 6.69608ZM-0.994221 5.97901L-0.820112 5.62693L-0.646004 5.97901L-0.257807 6.03576L-0.53896 6.30917L-0.473186 6.69608L-0.820112 6.51424L-1.16704 6.69608L-1.10127 6.30917L-1.38242 6.03576L-0.994221 5.97901ZM10.564 6.69608L10.2171 6.51424L9.87013 6.69608L9.93591 6.30917L9.65475 6.03576L10.043 5.97901L10.2171 5.62693L10.3912 5.97901L10.7794 6.03576L10.4982 6.30917L10.564 6.69608ZM9.30654 5.43089L8.95961 5.24905L8.61268 5.43089L8.67717 5.05559L8.67975 5.04399L8.3986 4.77057L8.78679 4.71382L8.9609 4.36174L9.13501 4.71382L9.52321 4.77057L9.24205 5.04399L9.24463 5.05559L9.30912 5.43089H9.30654ZM10.564 4.16571L10.2171 3.98386L9.87013 4.16571L9.93591 3.7788L9.65475 3.50538L10.043 3.44864L10.2171 3.09655L10.3912 3.44864L10.7794 3.50538L10.4982 3.7788L10.564 4.16571ZM-3.23312 4.16571L-3.58005 3.98386L-3.92698 4.16571L-3.8612 3.7788L-4.14236 3.50538L-3.75416 3.44864L-3.58005 3.09655L-3.40594 3.44864L-3.01775 3.50538L-3.2989 3.7788L-3.23312 4.16571ZM-2.63987 4.77057L-2.25167 4.71382L-2.07756 4.36174L-1.90345 4.71382L-1.51526 4.77057L-1.79641 5.04399L-1.79383 5.05559L-1.72934 5.43089L-2.07627 5.24905L-2.4232 5.43089L-2.35871 5.05559L-2.35613 5.04399L-2.63729 4.77057H-2.63987ZM-1.73063 7.96127L-2.07756 7.77942L-2.42449 7.96127L-2.35871 7.57436L-2.63987 7.30095L-2.25167 7.2442L-2.07756 6.89211L-1.90345 7.2442L-1.51526 7.30095L-1.79641 7.57436L-1.73063 7.96127ZM-1.38242 8.56614L-0.994221 8.50939L-0.820112 8.1573L-0.646004 8.50939L-0.257807 8.56614L-0.466737 8.76991L-0.53896 8.84084L-0.473186 9.22775L-0.820112 9.0459L-1.16704 9.22775L-1.10127 8.84084L-1.17349 8.76991L-1.38242 8.56614ZM1.02801 7.96127L0.681087 7.77942L0.33416 7.96127L0.399935 7.57436L0.118782 7.30095L0.506979 7.2442L0.681087 6.89211L0.855196 7.2442L1.24339 7.30095L0.96224 7.57436L1.02801 7.96127ZM1.37752 8.56614L1.76572 8.50939L1.93983 8.1573L2.11393 8.50939L2.50213 8.56614L2.2932 8.76991L2.22098 8.84084L2.28675 9.22775L1.93983 9.0459L1.5929 9.22775L1.65867 8.84084L1.58645 8.76991L1.37752 8.56614ZM3.78795 7.96127L3.44103 7.77942L3.0941 7.96127L3.15987 7.57436L2.87872 7.30095L3.26692 7.2442L3.44103 6.89211L3.61513 7.2442L4.00333 7.30095L3.72218 7.57436L3.78795 7.96127ZM4.13746 8.56614L4.52565 8.50939L4.69976 8.1573L4.87387 8.50939L5.26207 8.56614L5.05314 8.76991L4.98092 8.84084L5.04669 9.22775L4.69976 9.0459L4.35284 9.22775L4.41861 8.84084L4.34639 8.76991L4.13746 8.56614ZM6.54789 7.96127L6.20096 7.77942L5.85404 7.96127L5.91981 7.57436L5.63866 7.30095L6.02685 7.2442L6.20096 6.89211L6.37507 7.2442L6.76327 7.30095L6.48212 7.57436L6.54789 7.96127ZM6.89611 8.56614L7.2843 8.50939L7.45841 8.1573L7.63252 8.50939L8.02072 8.56614L7.81179 8.76991L7.73956 8.84084L7.80534 9.22775L7.45841 9.0459L7.11148 9.22775L7.17726 8.84084L7.10504 8.76991L6.89611 8.56614ZM9.30654 7.96127L8.95961 7.77942L8.61268 7.96127L8.67846 7.57436L8.39731 7.30095L8.7855 7.2442L8.95961 6.89211L9.13372 7.2442L9.52192 7.30095L9.24076 7.57436L9.30654 7.96127ZM9.30654 10.4916L8.95961 10.3098L8.61268 10.4916L8.67846 10.1047L8.39731 9.83132L8.7855 9.77458L8.95961 9.42249L9.13372 9.77458L9.52192 9.83132L9.24076 10.1047L9.30654 10.4916ZM6.54789 10.4916L6.20096 10.3098L5.85404 10.4916L5.91981 10.1047L5.63866 9.83132L6.02685 9.77458L6.20096 9.42249L6.37507 9.77458L6.76327 9.83132L6.48212 10.1047L6.54789 10.4916ZM3.78795 10.4916L3.44103 10.3098L3.0941 10.4916L3.15987 10.1047L2.87872 9.83132L3.26692 9.77458L3.44103 9.42249L3.61513 9.77458L4.00333 9.83132L3.72218 10.1047L3.78795 10.4916ZM1.02801 10.4916L0.681087 10.3098L0.33416 10.4916L0.399935 10.1047L0.118782 9.83132L0.506979 9.77458L0.681087 9.42249L0.855196 9.77458L1.24339 9.83132L0.96224 10.1047L1.02801 10.4916ZM-2.25167 9.77587L-2.07756 9.42378L-1.90345 9.77587L-1.51526 9.83261L-1.79641 10.106L-1.73063 10.4929L-2.07756 10.3111L-2.42449 10.4929L-2.35871 10.106L-2.63987 9.83261L-2.25167 9.77587ZM10.564 9.22646L10.2171 9.04461L9.87013 9.22646L9.93591 8.83955L9.86368 8.76862L9.65475 8.56485L10.043 8.5081L10.2171 8.15601L10.3912 8.5081L10.7794 8.56485L10.5704 8.76862L10.4982 8.83955L10.564 9.22646ZM-4.14107 8.56614L-3.75287 8.50939L-3.57876 8.1573L-3.40465 8.50939L-3.01646 8.56614L-3.22539 8.76991L-3.29761 8.84084L-3.23183 9.22775L-3.57876 9.0459L-3.92569 9.22775L-3.85991 8.84084L-3.93214 8.76991L-4.14107 8.56614ZM-3.23312 11.7568L-3.58005 11.575L-3.92698 11.7568L-3.8612 11.3699L-4.14236 11.0965L-3.75416 11.0398L-3.58005 10.6877L-3.40594 11.0398L-3.01775 11.0965L-3.2989 11.3699L-3.23312 11.7568ZM-0.473186 11.7568L-0.820112 11.575L-1.16704 11.7568L-1.10127 11.3699L-1.38242 11.0965L-0.994221 11.0398L-0.820112 10.6877L-0.646004 11.0398L-0.257807 11.0965L-0.53896 11.3699L-0.473186 11.7568ZM2.28546 11.7568L1.93854 11.575L1.59161 11.7568L1.65738 11.3699L1.37623 11.0965L1.76443 11.0398L1.93854 10.6877L2.11264 11.0398L2.50084 11.0965L2.21969 11.3699L2.28546 11.7568ZM5.0454 11.7568L4.69847 11.575L4.35155 11.7568L4.41732 11.3699L4.13617 11.0965L4.52437 11.0398L4.69847 10.6877L4.87258 11.0398L5.26078 11.0965L4.97963 11.3699L5.0454 11.7568ZM7.80534 11.7568L7.45841 11.575L7.11148 11.7568L7.17726 11.3699L6.89611 11.0965L7.2843 11.0398L7.45841 10.6877L7.63252 11.0398L8.02072 11.0965L7.73956 11.3699L7.80534 11.7568ZM10.564 11.7568L10.2171 11.575L9.87013 11.7568L9.93591 11.3699L9.65475 11.0965L10.043 11.0398L10.2171 10.6877L10.3912 11.0398L10.7794 11.0965L10.4982 11.3699L10.564 11.7568Z" fill="#0E1871"/>
<path d="M1.59251 1.63427L1.93943 1.45243L2.28636 1.63427L2.22059 1.24865L2.50174 0.975239L2.11354 0.918492L1.93943 0.566406L1.76661 0.918492L1.37842 0.975239L1.65957 1.24865L1.59251 1.63427Z" fill="white"/>
<path d="M4.35081 1.63427L4.69773 1.45243L5.04466 1.63427L4.97889 1.24865L5.25875 0.975239L4.87184 0.918492L4.69773 0.566406L4.52363 0.918492L4.13672 0.975239L4.41658 1.24865L4.35081 1.63427Z" fill="white"/>
<path d="M7.11137 1.63427L7.4583 1.45243L7.80523 1.63427L7.73816 1.24865L8.01932 0.975239L7.63112 0.918492L7.4583 0.566406L7.28419 0.918492L6.896 0.975239L7.17715 1.24865L7.11137 1.63427Z" fill="white"/>
<path d="M9.87083 1.63427L10.2178 1.45243L10.5647 1.63427L10.4989 1.24865L10.7801 0.975239L10.3919 0.918492L10.2178 0.566406L10.0449 0.918492L9.65674 0.975239L9.93789 1.24865L9.87083 1.63427Z" fill="white"/>
<path d="M0.855485 2.18314L0.681377 1.83105L0.508557 2.18314L0.120361 2.23989L0.401514 2.5133L0.334449 2.90021L0.681377 2.71707L1.0283 2.90021L0.962529 2.5133L1.24368 2.23989L0.855485 2.18314Z" fill="white"/>
<path d="M3.61298 2.18314L3.44017 1.83105L3.26606 2.18314L2.87915 2.23989L3.15901 2.5133L3.09324 2.90021L3.44017 2.71707L3.78709 2.90021L3.72132 2.5133L4.00118 2.23989L3.61298 2.18314Z" fill="white"/>
<path d="M6.3738 2.18314L6.20098 1.83105L6.02687 2.18314L5.63867 2.23989L5.91982 2.5133L5.85405 2.90021L6.20098 2.71707L6.5479 2.90021L6.48084 2.5133L6.76199 2.23989L6.3738 2.18314Z" fill="white"/>
<path d="M9.13429 2.18314L8.96019 1.83105L8.78737 2.18314L8.39917 2.23989L8.68032 2.5133L8.61326 2.90021L8.96019 2.71707L9.30711 2.90021L9.24134 2.5133L9.52249 2.23989L9.13429 2.18314Z" fill="white"/>
<path d="M0.334449 5.43078L0.681377 5.24764L1.0283 5.43078L0.963819 5.05548L0.962529 5.04387L1.24368 4.77046L0.855485 4.71371L0.681377 4.36292L0.508557 4.71371L0.120361 4.77046L0.401514 5.04387L0.398934 5.05548L0.334449 5.43078Z" fill="white"/>
<path d="M3.09324 5.43078L3.44017 5.24764L3.78709 5.43078L3.72261 5.05548L3.72132 5.04387L4.00118 4.77046L3.61298 4.71371L3.44017 4.36292L3.26606 4.71371L2.87915 4.77046L3.15901 5.04387L3.15772 5.05548L3.09324 5.43078Z" fill="white"/>
<path d="M5.85405 5.43078L6.20098 5.24764L6.5479 5.43078L6.48342 5.05548L6.48084 5.04387L6.76199 4.77046L6.3738 4.71371L6.20098 4.36292L6.02687 4.71371L5.63867 4.77046L5.91982 5.04387L5.91724 5.05548L5.85405 5.43078Z" fill="white"/>
<path d="M9.52249 4.77046L9.13429 4.71371L8.96019 4.36292L8.78737 4.71371L8.39917 4.77046L8.68032 5.04387L8.67774 5.05548L8.61326 5.43078L8.96019 5.24764L9.30711 5.43078L9.24263 5.05548L9.24134 5.04387L9.52249 4.77046Z" fill="white"/>
<path d="M0.855485 7.24411L0.681377 6.89331L0.508557 7.24411L0.120361 7.30085L0.401514 7.57427L0.334449 7.96118L0.681377 7.77804L1.0283 7.96118L0.962529 7.57427L1.24368 7.30085L0.855485 7.24411Z" fill="white"/>
<path d="M3.61298 7.24411L3.44017 6.89331L3.26606 7.24411L2.87915 7.30085L3.15901 7.57427L3.09324 7.96118L3.44017 7.77804L3.78709 7.96118L3.72132 7.57427L4.00118 7.30085L3.61298 7.24411Z" fill="white"/>
<path d="M6.3738 7.24411L6.20098 6.89331L6.02687 7.24411L5.63867 7.30085L5.91982 7.57427L5.85405 7.96118L6.20098 7.77804L6.5479 7.96118L6.48084 7.57427L6.76199 7.30085L6.3738 7.24411Z" fill="white"/>
<path d="M9.13429 7.24411L8.96019 6.89331L8.78737 7.24411L8.39917 7.30085L8.68032 7.57427L8.61326 7.96118L8.96019 7.77804L9.30711 7.96118L9.24134 7.57427L9.52249 7.30085L9.13429 7.24411Z" fill="white"/>
<path d="M0.855485 9.77579L0.681377 9.42371L0.508557 9.77579L0.120361 9.83125L0.401514 10.1047L0.334449 10.4916L0.681377 10.3097L1.0283 10.4916L0.962529 10.1047L1.24368 9.83125L0.855485 9.77579Z" fill="white"/>
<path d="M3.61298 9.77579L3.44017 9.42371L3.26606 9.77579L2.87915 9.83125L3.15901 10.1047L3.09324 10.4916L3.44017 10.3097L3.78709 10.4916L3.72132 10.1047L4.00118 9.83125L3.61298 9.77579Z" fill="white"/>
<path d="M6.3738 9.77579L6.20098 9.42371L6.02687 9.77579L5.63867 9.83125L5.91982 10.1047L5.85405 10.4916L6.20098 10.3097L6.5479 10.4916L6.48084 10.1047L6.76199 9.83125L6.3738 9.77579Z" fill="white"/>
<path d="M9.13429 9.77579L8.96019 9.42371L8.78737 9.77579L8.39917 9.83125L8.68032 10.1047L8.61326 10.4916L8.96019 10.3097L9.30711 10.4916L9.24134 10.1047L9.52249 9.83125L9.13429 9.77579Z" fill="white"/>
<path d="M2.11354 3.44857L1.93943 3.09778L1.76661 3.44857L1.37842 3.50532L1.65957 3.77874L1.59251 4.16564L1.93943 3.98251L2.28636 4.16564L2.22059 3.77874L2.50174 3.50532L2.11354 3.44857Z" fill="white"/>
<path d="M4.87184 3.44857L4.69773 3.09778L4.52363 3.44857L4.13672 3.50532L4.41658 3.77874L4.35081 4.16564L4.69773 3.98251L5.04466 4.16564L4.97889 3.77874L5.25875 3.50532L4.87184 3.44857Z" fill="white"/>
<path d="M7.63112 3.44857L7.4583 3.09778L7.28419 3.44857L6.896 3.50532L7.17715 3.77874L7.11137 4.16564L7.4583 3.98251L7.80523 4.16564L7.73816 3.77874L8.01932 3.50532L7.63112 3.44857Z" fill="white"/>
<path d="M10.3919 3.44857L10.2178 3.09778L10.0449 3.44857L9.65674 3.50532L9.93789 3.77874L9.87083 4.16564L10.2178 3.98251L10.5647 4.16564L10.4989 3.77874L10.7801 3.50532L10.3919 3.44857Z" fill="white"/>
<path d="M2.11354 5.97897L1.93943 5.62817L1.76661 5.97897L1.37842 6.03572L1.65957 6.30913L1.59251 6.69604L1.93943 6.5129L2.28636 6.69604L2.22059 6.30913L2.50174 6.03572L2.11354 5.97897Z" fill="white"/>
<path d="M4.87184 5.97897L4.69773 5.62817L4.52363 5.97897L4.13672 6.03572L4.41658 6.30913L4.35081 6.69604L4.69773 6.5129L5.04466 6.69604L4.97889 6.30913L5.25875 6.03572L4.87184 5.97897Z" fill="white"/>
<path d="M7.63112 5.97897L7.4583 5.62817L7.28419 5.97897L6.896 6.03572L7.17715 6.30913L7.11137 6.69604L7.4583 6.5129L7.80523 6.69604L7.73816 6.30913L8.01932 6.03572L7.63112 5.97897Z" fill="white"/>
<path d="M10.3919 5.97897L10.2178 5.62817L10.0449 5.97897L9.65674 6.03572L9.93789 6.30913L9.87083 6.69604L10.2178 6.5129L10.5647 6.69604L10.4989 6.30913L10.7801 6.03572L10.3919 5.97897Z" fill="white"/>
<path d="M1.59251 9.22643L1.93943 9.04459L2.28636 9.22643L2.22059 8.83953L2.29281 8.76988L2.50174 8.56611L2.11354 8.50937L1.93943 8.15857L1.76661 8.50937L1.37842 8.56611L1.58735 8.76988L1.65957 8.83953L1.59251 9.22643Z" fill="white"/>
<path d="M4.35081 9.22643L4.69773 9.04459L5.04466 9.22643L4.97889 8.83953L5.05111 8.76988L5.25875 8.56611L4.87184 8.50937L4.69773 8.15857L4.52363 8.50937L4.13672 8.56611L4.34436 8.76988L4.41658 8.83953L4.35081 9.22643Z" fill="white"/>
<path d="M7.11137 9.22643L7.4583 9.04459L7.80523 9.22643L7.73816 8.83953L7.81039 8.76988L8.01932 8.56611L7.63112 8.50937L7.4583 8.15857L7.28419 8.50937L6.896 8.56611L7.10493 8.76988L7.17715 8.83953L7.11137 9.22643Z" fill="white"/>
<path d="M10.7801 8.56611L10.3919 8.50937L10.2178 8.15857L10.0449 8.50937L9.65674 8.56611L9.86567 8.76988L9.93789 8.83953L9.87083 9.22643L10.2178 9.04459L10.5647 9.22643L10.4989 8.83953L10.5711 8.76988L10.7801 8.56611Z" fill="white"/>
<path d="M2.11354 11.0411L1.93943 10.689L1.76661 11.0411L1.37842 11.0965L1.65957 11.3712L1.59251 11.7568L1.93943 11.575L2.28636 11.7568L2.22059 11.3712L2.50174 11.0965L2.11354 11.0411Z" fill="white"/>
<path d="M4.87184 11.0411L4.69773 10.689L4.52363 11.0411L4.13672 11.0965L4.41658 11.3712L4.35081 11.7568L4.69773 11.575L5.04466 11.7568L4.97889 11.3712L5.25875 11.0965L4.87184 11.0411Z" fill="white"/>
<path d="M7.63112 11.0411L7.4583 10.689L7.28419 11.0411L6.896 11.0965L7.17715 11.3712L7.11137 11.7568L7.4583 11.575L7.80523 11.7568L7.73816 11.3712L8.01932 11.0965L7.63112 11.0411Z" fill="white"/>
<path d="M10.3919 11.0411L10.2178 10.689L10.0449 11.0411L9.65674 11.0965L9.93789 11.3712L9.87083 11.7568L10.2178 11.575L10.5647 11.7568L10.4989 11.3712L10.7801 11.0965L10.3919 11.0411Z" fill="white"/>
</g>
<circle opacity="0.25" cx="12" cy="12" r="11.75" stroke="#222222" stroke-width="0.5"/>
</g>
<defs>
<filter id="filter0_d_4318_3594" x="-18" y="-13" width="74.7217" height="67.6" filterUnits="userSpaceOnUse" color-interpolation-filters="sRGB">
<feFlood flood-opacity="0" result="BackgroundImageFix"/>
<feColorMatrix in="SourceAlpha" type="matrix" values="0 0 0 0 0 0 0 0 0 0 0 0 0 0 0 0 0 0 127 0" result="hardAlpha"/>
<feOffset dx="5" dy="5"/>
<feGaussianBlur stdDeviation="9"/>
<feColorMatrix type="matrix" values="0 0 0 0 0 0 0 0 0 0 0 0 0 0 0 0 0 0 0.15 0"/>
<feBlend mode="normal" in2="BackgroundImageFix" result="effect1_dropShadow_4318_3594"/>
<feBlend mode="normal" in="SourceGraphic" in2="effect1_dropShadow_4318_3594" result="shape"/>
</filter>
<clipPath id="clip0_4318_3594">
<rect width="24" height="24" fill="white" transform="translate(-1)"/>
</clipPath>
<clipPath id="clip1_4318_3594">
<rect width="24" height="24" fill="white" transform="translate(-1)"/>
</clipPath>
</defs>
</svg>
